<svg width="153" height="153" viewBox="0 0 153 153" fill="none" xmlns="http://www.w3.org/2000/svg">
<circle cx="76.5" cy="76.5" r="76.5" fill="#121214"/>
<path d="M59.2001 53.88C59.2001 53.88 56.9655 43.0545 59.0615 38.9602C61.1573 34.866 66.7171 35.9242 67.2366 37.902C67.7564 39.8797 68.0335 44.772 69.6095 44.8934C71.1858 45.0149 72.9006 45.8129 72.5021 47.0099C72.1037 48.207 69.4709 48.8662 69.3324 49.3867C69.1938 49.9071 70.2506 54.9382 70.2506 54.9382L59.2001 53.88Z" fill="#8157E4"/>
<path d="M63.6168 45.5179C64.0952 45.5179 64.4828 44.7489 64.4828 43.8004C64.4828 42.8518 64.0952 42.0829 63.6168 42.0829C63.1386 42.0829 62.7507 42.8518 62.7507 43.8004C62.7507 44.7489 63.1386 45.5179 63.6168 45.5179Z" fill="#121214"/>
<path d="M66.4398 46.0212C66.9182 46.0212 67.3058 45.2522 67.3058 44.3037C67.3058 43.3551 66.9182 42.5862 66.4398 42.5862C65.9613 42.5862 65.5737 43.3551 65.5737 44.3037C65.5737 45.2522 65.9613 46.0212 66.4398 46.0212Z" fill="#121214"/>
<path d="M63.0104 40.7991C63.9458 40.5909 65.6778 40.4 67.1675 41.2501C67.3232 41.3369 67.4965 41.146 67.3751 41.0073C66.6133 40.0531 65.037 38.752 62.8718 40.5041C62.7333 40.6082 62.8546 40.8338 63.0104 40.7991Z" fill="#121214"/>
<path d="M67.0289 48.3803C67.0808 48.2242 66.977 48.0507 66.8212 48.0334C66.0763 47.8946 64.0846 47.4435 62.5084 46.5067C62.5084 46.5067 62.7683 45.8474 62.1099 46.2464C61.4519 46.6455 62.8202 51.4684 65.401 50.6009C66.3015 50.2887 66.8212 48.9702 67.0289 48.3803Z" fill="#121214"/>
<path d="M61.1745 37.503C61.1745 37.503 59.7196 34.467 54.8525 34.467C49.9854 34.467 45.482 44.1128 41.0133 43.0545C36.5273 41.9963 39.9567 45.8303 42.4682 45.8303C42.4682 45.8303 42.3297 46.6284 41.2731 47.0274C40.2166 47.4264 43.2476 49.4041 45.7591 47.9468C45.7591 47.9468 45.6206 48.6061 44.8411 49.5256C44.0444 50.445 46.5559 51.2431 48.0108 48.7275C49.4657 46.212 53.1551 39.4808 57.641 40.0186C62.1099 40.539 61.1745 37.503 61.1745 37.503Z" fill="#8157E4"/>
<path d="M83.137 79.8335C83.137 79.8335 92.6632 90.416 91.4509 97.5289C90.2384 104.642 82.271 103.428 82.271 103.428L75.5158 104.815L72.9178 105.162C72.9178 105.162 74.6498 101.346 72.0518 96.1411L80.8852 94.0592L74.3555 84.6737L83.137 79.8335Z" fill="white"/>
<path d="M56.0475 92.2376C57.312 94.7183 58.4898 97.6848 58.9055 100.617C58.9402 100.877 58.5764 100.981 58.4723 100.738C57.7971 99.2289 56.6017 97.043 55.2509 96.8174C55.2509 96.8174 41.7407 96.4706 36.891 96.2971C32.0412 96.1236 31.868 112.084 39.6623 114.166C47.4565 116.248 46.9369 111.911 46.9369 111.911C46.9369 111.911 43.1091 110.922 41.4809 108.163C41.3597 107.955 41.6195 107.712 41.81 107.869C43.2996 109.014 46.7983 111.303 51.0766 111.564C56.7922 111.911 68.5702 109.135 71.6881 103.93C73.8704 100.287 69.4362 93.4173 66.5786 89.6178C67.3233 90.0341 68.1201 90.572 68.934 91.3006C69.2805 91.6129 69.748 91.7345 70.1984 91.6649L84.0031 89.3578L80.712 81.6548C77.1268 83.0601 73.4895 85.5758 68.934 87.9697C62.9585 91.1098 57.9356 92.012 56.0475 92.2376Z" fill="white"/>
<path d="M41.8274 107.886C43.3169 109.031 46.8157 111.321 51.0938 111.581C51.3365 111.598 51.5961 111.598 51.856 111.615C46.3653 107.07 46.781 99.3677 47.1275 96.6264C43.3342 96.5224 39.16 96.4011 36.891 96.3143C32.0412 96.1408 31.868 112.101 39.6623 114.183C47.4565 116.265 46.9369 111.928 46.9369 111.928C46.9369 111.928 43.1091 110.939 41.4809 108.181C41.3597 107.955 41.6195 107.729 41.8274 107.886Z" fill="#464650"/>
<path d="M124.1 39.6714C121.658 36.7916 118.176 34.7271 114.401 33.2351C113.968 34.3107 113.102 35.2302 111.941 35.4384C111.612 35.4904 111.11 35.7333 110.763 35.768C110.677 35.8201 110.59 35.8721 110.503 35.9241C110.486 35.9415 110.469 35.9415 110.451 35.9588C110.4 36.0109 110.278 36.115 110.157 36.167C109.932 36.3579 109.724 36.566 109.499 36.7742C109.222 37.0518 108.945 37.3294 108.685 37.6243C108.65 37.659 108.616 37.711 108.581 37.7631C108.529 37.8672 108.477 37.9886 108.408 38.0927C108.338 38.3182 108.252 38.5264 108.2 38.7519C108.165 38.9254 108.131 39.0989 108.096 39.2724C108.079 39.55 108.027 39.8275 108.009 40.1051C107.975 40.8164 107.957 41.5277 107.975 42.2216C107.992 43.5748 108.044 44.928 107.94 46.2812C107.923 46.6108 107.853 46.9404 107.767 47.2354C118.627 49.7856 117.899 57.1067 106.502 58.6679C92.646 60.5763 77.4039 55.3718 77.4039 55.3718C77.4039 55.3718 56.3593 49.3866 45.967 54.938C35.5746 60.4895 30.4824 80.6311 42.6761 88.2474C58.0048 97.8237 73.1777 82.4182 84.4706 81.3598C83.6218 79.9373 84.0722 77.8729 85.1287 76.7104C85.4233 76.3808 85.8389 76.1205 86.2893 75.9297C86.2374 75.8605 86.168 75.7737 86.1161 75.7042C86.0641 75.6697 85.9084 75.4787 85.7698 75.3399C85.4924 75.0451 85.2153 74.7675 84.921 74.5072C83.847 73.5358 82.5134 72.6856 81.8379 71.3499C81.2837 70.2394 81.1623 69.112 81.6474 67.9495C82.0631 66.978 82.981 65.8851 84.1069 65.7463C84.2974 65.7288 84.4879 65.6943 84.6611 65.6768C84.3149 65.6595 83.9684 65.6248 83.6218 65.6248L83.5699 65.0177C83.5699 65.0177 81.3184 62.1376 80.2097 59.8824C80.1233 59.7264 80.3482 59.5876 80.4696 59.7264C81.7168 61.357 84.3321 64.6013 85.995 65.3645C128.43 67.7759 132.761 49.907 124.1 39.6714ZM80.383 65.7288C77.3173 66.0411 73.9918 66.9085 70.4064 68.4698C58.2819 73.7266 45.6898 74.1601 42.9012 70.0834C42.7973 69.9446 42.9705 69.7711 43.1091 69.8751C43.5248 70.1874 44.1137 70.517 44.8065 70.5517C44.8758 70.5517 44.9451 70.4997 44.9624 70.4305C45.101 69.5283 46.1055 64.2543 49.7082 61.357C49.8641 61.2357 50.0373 61.4437 49.9161 61.5825C49.2579 62.2767 48.5131 63.2306 48.0974 64.341C47.9415 64.7401 47.9589 65.1737 48.1494 65.538C48.9115 67.2208 51.2152 72.1653 51.4576 72.1825C52.9819 72.2865 56.8616 72.1305 63.4955 70.3609C70.5277 68.4873 75.3082 65.1912 80.383 65.7288Z" fill="white"/>
<path d="M76.9363 84.5349C76.1914 84.5869 75.8104 85.4891 76.3127 86.0442C77.9062 87.831 79.95 91.4222 78.1142 96.835C75.6891 103.983 33.5136 114.877 23.2078 117.445C22.8961 117.532 22.948 118 23.2771 118L84.3321 117.826C84.5747 117.826 84.7999 117.792 85.0251 117.722C89.5109 116.317 130.613 102.213 138.199 94.0592C144.452 87.3627 135.064 82.609 131.894 81.256C131.288 80.9957 130.63 80.8917 129.972 80.9437L76.9363 84.5349Z" fill="url(#paint0_radial_4226_34230)"/>
<path d="M80.2097 88.4206C80.2963 88.6114 80.3482 88.6981 80.4176 88.8889C82.2707 88.7501 83.2062 88.6809 85.094 88.5246C85.0073 88.3513 84.9729 88.247 84.8863 88.0738C82.9982 88.2298 82.063 88.2993 80.2097 88.4206Z" fill="#04D361"/>
<path d="M83.1889 89.6181C83.2583 89.7913 83.2755 89.8781 83.345 90.0689C83.8819 90.0169 84.159 89.9997 84.7133 89.9476C84.6613 89.7741 84.6266 89.6873 84.5572 89.5138C84.003 89.5486 83.7259 89.5833 83.1889 89.6181Z" fill="#04D361"/>
<path d="M85.3019 89.4446C85.3711 89.6179 85.3886 89.7046 85.4577 89.8782C87.2245 89.7222 88.1252 89.6354 89.9611 89.4619C89.8919 89.2883 89.8744 89.2191 89.8053 89.0455C87.9691 89.2015 87.0859 89.2883 85.3019 89.4446Z" fill="#6F33EA"/>
<path d="M90.7235 88.9587C90.7929 89.1323 90.8274 89.2015 90.8968 89.375C93.1483 89.167 95.3829 88.9587 97.6344 88.7332C97.5478 88.5772 97.5131 88.5076 97.4267 88.3516C95.1921 88.5424 92.9578 88.7504 90.7235 88.9587Z" fill="#6F33EA"/>
<path d="M81.3705 91.1616C81.4225 91.3351 81.4397 91.4219 81.4744 91.5955C81.9939 91.5432 82.271 91.5087 82.7908 91.4567C82.7561 91.2831 82.7389 91.1964 82.6867 91.0228C82.1499 91.0748 81.89 91.1096 81.3705 91.1616Z" fill="#04D361"/>
<path d="M83.4313 90.9539C83.466 91.1274 83.5008 91.2142 83.5355 91.3874C85.2675 91.2142 86.1507 91.1099 87.9694 90.9366C87.9347 90.7803 87.9175 90.6936 87.8655 90.52C86.0641 90.6936 85.1809 90.7803 83.4313 90.9539Z" fill="#6F33EA"/>
<path d="M96.855 89.6003C96.9245 89.7566 96.9417 89.8259 96.9936 89.9821C98.6046 89.8086 100.232 89.6351 101.843 89.4615C101.774 89.3228 101.74 89.236 101.653 89.0972C99.7302 89.3228 98.7603 89.4095 96.855 89.6003Z" fill="#04D361"/>
<path d="M88.8007 90.416C88.8529 90.572 88.8701 90.6588 88.9048 90.8148C91.1563 90.5896 93.4253 90.3465 95.6771 90.1209C95.6249 89.9649 95.5905 89.8954 95.5386 89.7394C93.304 89.9649 91.0525 90.1905 88.8007 90.416Z" fill="#6F33EA"/>
<path d="M83.7604 93.4173C83.7604 93.5734 83.7604 93.6601 83.7604 93.8162C84.176 93.7641 84.384 93.7469 84.7997 93.6949C84.7997 93.5386 84.8169 93.4693 84.8169 93.313C84.384 93.3478 84.176 93.3653 83.7604 93.4173Z" fill="#04D361"/>
<path d="M85.5618 93.209C85.5618 93.365 85.5618 93.4345 85.5446 93.5906C87.3113 93.3823 88.2292 93.261 90.0998 93.0527C90.0998 92.8967 90.0998 92.8272 90.0998 92.6711C88.2465 92.8967 87.3285 93.0007 85.5618 93.209Z" fill="#6F33EA"/>
<path d="M99.0027 91.665C99.0199 91.8038 99.0371 91.8733 99.0371 92.0293C99.4528 91.9773 99.6607 91.9598 100.076 91.9078C100.059 91.769 100.042 91.6998 100.024 91.561C99.626 91.5955 99.4183 91.613 99.0027 91.665Z" fill="#AD92FF"/>
<path d="M91.0872 92.5672C91.0872 92.7235 91.0872 92.7927 91.0872 92.949C93.4429 92.6712 95.8158 92.3936 98.1714 92.1336C98.1539 91.9948 98.1539 91.9253 98.1367 91.7693C95.7811 92.0293 93.4429 92.2896 91.0872 92.5672Z" fill="#6F33EA"/>
<path d="M100.908 91.4394C100.943 91.5782 100.943 91.6477 100.96 91.7865C103.454 91.4914 105.931 91.1967 108.425 90.9016C108.39 90.7628 108.356 90.6936 108.321 90.572C105.844 90.8668 103.385 91.1619 100.908 91.4394Z" fill="#6F33EA"/>
<path d="M82.8596 97.98C82.773 98.1187 82.7211 98.188 82.6345 98.3268C83.0504 98.2575 83.2753 98.24 83.7084 98.1708C83.8123 98.032 83.847 97.9624 83.9336 97.8237C83.5005 97.8932 83.2753 97.9277 82.8596 97.98Z" fill="#04D361"/>
<path d="M84.9038 97.7199C84.8171 97.8587 84.7652 97.9107 84.6786 98.0495C86.4453 97.8067 87.3977 97.6676 89.3552 97.4076C89.4415 97.2861 89.4937 97.2168 89.5801 97.0781C87.6229 97.3381 86.6705 97.4596 84.9038 97.7199Z" fill="#6F33EA"/>
<path d="M99.1063 95.8805C99.0372 96.0021 99.0025 96.0713 98.9158 96.1929C99.3662 96.1408 99.5914 96.1061 100.059 96.0541C100.128 95.9325 100.163 95.8633 100.232 95.7418C99.7818 95.7938 99.5567 95.8285 99.1063 95.8805Z" fill="#04D361"/>
<path d="M90.6021 96.939C90.5155 97.0778 90.4808 97.1298 90.377 97.2686C92.9059 96.939 95.4345 96.6267 97.9634 96.3144C98.05 96.1931 98.0847 96.1236 98.1539 96.0021C95.6425 96.3144 93.131 96.6267 90.6021 96.939Z" fill="#6F33EA"/>
<path d="M101.168 95.6205C101.099 95.742 101.064 95.8113 100.994 95.9328C103.697 95.6033 106.398 95.2737 109.1 94.9266C109.153 94.8051 109.187 94.7359 109.222 94.6143C106.555 94.9614 103.87 95.2909 101.168 95.6205Z" fill="#6F33EA"/>
<path d="M81.2314 99.9921C81.1104 100.114 81.041 100.183 80.9024 100.304C81.3181 100.235 81.526 100.218 81.9417 100.148C82.0802 100.027 82.1494 99.9573 82.2707 99.8361C81.8551 99.8881 81.6471 99.9225 81.2314 99.9921Z" fill="#04D361"/>
<path d="M83.2928 99.628C83.1714 99.7495 83.1023 99.8188 82.9637 99.9403C84.713 99.68 85.6657 99.5585 87.6576 99.2985C87.7961 99.1769 87.8481 99.1077 87.9866 98.9861C86.0122 99.2464 85.0595 99.3852 83.2928 99.628Z" fill="#6F33EA"/>
<path d="M97.9976 97.7716C97.8765 97.8929 97.8246 97.9624 97.7032 98.084C98.1883 98.0317 98.4307 97.9972 98.9158 97.9452C99.0368 97.8237 99.0888 97.7541 99.2101 97.6329C98.725 97.6849 98.4826 97.7196 97.9976 97.7716Z" fill="#04D361"/>
<path d="M89.0262 98.8471C88.9048 98.9686 88.8357 99.0379 88.7144 99.1594C91.2952 98.8298 93.8932 98.5 96.4738 98.188C96.5951 98.0664 96.6471 97.9969 96.7684 97.8757C94.1876 98.2052 91.6067 98.5175 89.0262 98.8471Z" fill="#6F33EA"/>
<path d="M99.8687 97.5113C99.7649 97.6329 99.7127 97.7021 99.5916 97.8236C102.38 97.4941 105.169 97.147 107.957 96.7999C108.061 96.6787 108.096 96.6091 108.2 96.4876C105.429 96.8347 102.64 97.1642 99.8687 97.5113Z" fill="#6F33EA"/>
<path d="M78.0448 101.207C77.9062 101.328 77.8368 101.38 77.6982 101.502C78.0448 101.449 78.2177 101.415 78.5643 101.345C78.7028 101.224 78.7722 101.172 78.9108 101.051C78.5643 101.12 78.391 101.155 78.0448 101.207Z" fill="#04D361"/>
<path d="M79.5863 100.964C79.4477 101.085 79.3786 101.137 79.2225 101.259C80.7641 101.016 81.6301 100.877 83.4663 100.634C83.622 100.513 83.6915 100.461 83.83 100.339C81.9938 100.582 81.1278 100.703 79.5863 100.964Z" fill="#6F33EA"/>
<path d="M93.2521 99.1941C93.1136 99.3157 93.0441 99.3849 92.8884 99.5065C93.3559 99.4544 93.5986 99.4197 94.0834 99.3677C94.2395 99.2461 94.3086 99.1769 94.4471 99.0554C93.9624 99.1074 93.7197 99.1246 93.2521 99.1941Z" fill="#04D361"/>
<path d="M84.7996 100.2C84.6611 100.322 84.5745 100.374 84.4359 100.495C86.9126 100.166 89.3721 99.8535 91.8491 99.5412C91.9877 99.4197 92.0743 99.3677 92.2129 99.2462C89.7359 99.5412 87.2592 99.8535 84.7996 100.2Z" fill="#6F33EA"/>
<path d="M82.271 97.0777C82.2016 97.2165 82.1669 97.286 82.0977 97.4248C83.7259 97.182 84.5919 97.0605 86.4106 96.8177C86.4797 96.6789 86.5144 96.6094 86.5836 96.4706C84.7824 96.7309 83.8989 96.8522 82.271 97.0777Z" fill="#04D361"/>
<path d="M95.5731 95.3429C95.5212 95.4817 95.4865 95.5337 95.4171 95.6728C95.8502 95.6205 96.0582 95.586 96.5083 95.5337C96.5777 95.3949 96.5949 95.3429 96.6471 95.2042C96.2139 95.2562 95.9888 95.2737 95.5731 95.3429Z" fill="#04D361"/>
<path d="M87.5537 96.3488C87.4843 96.4876 87.4498 96.5571 87.3804 96.6959C89.7533 96.3836 92.1437 96.0713 94.5165 95.7765C94.586 95.6377 94.6032 95.5854 94.6726 95.4467C92.2994 95.7417 89.9266 96.0365 87.5537 96.3488Z" fill="#6F33EA"/>
<path d="M97.5478 95.0826C97.4959 95.2214 97.4612 95.2734 97.4092 95.4122C100.025 95.0826 102.64 94.7703 105.273 94.4408C105.308 94.3192 105.325 94.25 105.359 94.1112C102.761 94.4408 100.163 94.7703 97.5478 95.0826Z" fill="#6F33EA"/>
<path d="M106.312 94.0072C106.277 94.1284 106.26 94.198 106.225 94.3367C112.01 93.6081 117.778 92.8795 123.546 92.0468C123.546 91.9253 123.563 91.8558 123.563 91.7345C117.813 92.5499 112.063 93.2958 106.312 94.0072Z" fill="#6F33EA"/>
<path d="M87.4849 94.1112C87.4674 94.2672 87.4502 94.3367 87.4155 94.4755C89.2341 94.25 90.1868 94.1284 92.1268 93.9029C92.144 93.7641 92.1612 93.6946 92.1787 93.5386C90.2562 93.7641 89.3035 93.8857 87.4849 94.1112Z" fill="#04D361"/>
<path d="M101.376 92.4457C101.376 92.5844 101.376 92.654 101.376 92.7927C101.809 92.7407 102.016 92.7235 102.45 92.6712C102.45 92.5324 102.45 92.4632 102.432 92.3244C102.016 92.3764 101.809 92.3937 101.376 92.4457Z" fill="#04D361"/>
<path d="M93.2005 93.417C93.183 93.5558 93.183 93.6253 93.1486 93.7814C95.5906 93.4866 98.0329 93.1915 100.475 92.8967C100.475 92.7579 100.475 92.6884 100.475 92.5496C98.0501 92.8447 95.6253 93.1222 93.2005 93.417Z" fill="#6F33EA"/>
<path d="M103.35 92.2029C103.367 92.3416 103.367 92.4109 103.367 92.5497C105.914 92.2376 108.477 91.9253 111.023 91.613C111.006 91.4742 110.989 91.4222 110.954 91.2834C108.425 91.5955 105.879 91.9078 103.35 92.2029Z" fill="#6F33EA"/>
<path d="M80.0714 99.3157C79.9675 99.4372 79.9156 99.5065 79.8115 99.628C81.3186 99.3852 82.1324 99.2637 83.8992 99.0034C84.0205 98.8818 84.0724 98.8126 84.1763 98.691C82.4095 98.9341 81.5782 99.0729 80.0714 99.3157Z" fill="#6F33EA"/>
<path d="M93.2002 97.5116C93.0964 97.6504 93.0444 97.7024 92.9231 97.8412C93.3735 97.7892 93.5986 97.7544 94.0662 97.7024C94.1703 97.5812 94.2223 97.5116 94.3261 97.3729C93.8757 97.4249 93.6506 97.4596 93.2002 97.5116Z" fill="#04D361"/>
<path d="M104.095 96.1408C104.008 96.2624 103.974 96.3319 103.887 96.4532C104.355 96.4012 104.597 96.3664 105.065 96.3144C105.151 96.1931 105.186 96.1236 105.273 96.0021C104.805 96.0544 104.563 96.0888 104.095 96.1408Z" fill="#04D361"/>
<path d="M85.0945 98.5523C84.9907 98.6736 84.9385 98.7431 84.8174 98.8646C87.1728 98.5348 89.546 98.2225 91.9188 97.9277C92.0227 97.8061 92.0746 97.7369 92.1787 97.6154C89.8231 97.9277 87.4674 98.2225 85.0945 98.5523Z" fill="#6F33EA"/>
<path d="M95.1055 97.2513C95.0013 97.3726 94.9494 97.4421 94.8456 97.5634C97.5303 97.2338 100.215 96.9043 102.9 96.5747C102.986 96.4532 103.038 96.3839 103.108 96.2624C100.457 96.5919 97.7727 96.9215 95.1055 97.2513Z" fill="#6F33EA"/>
<path d="M106.26 95.8805C106.19 96.0017 106.139 96.0713 106.069 96.1925C108.806 95.8457 111.56 95.5162 114.297 95.1519C114.366 95.0303 114.401 94.9608 114.452 94.8395C111.716 95.2039 108.979 95.5334 106.26 95.8805Z" fill="#6F33EA"/>
<path d="M99.6955 88.1258C99.7993 88.2821 99.834 88.3514 99.9207 88.5077C102.294 88.2821 104.666 88.0391 107.039 87.779C106.918 87.6402 106.866 87.5707 106.745 87.4319C104.407 87.6747 102.051 87.9003 99.6955 88.1258Z" fill="#6F33EA"/>
<path d="M107.75 87.3276C107.871 87.4664 107.94 87.5359 108.044 87.6747C109.447 87.5359 110.157 87.4492 111.56 87.2932C111.439 87.1544 111.369 87.0848 111.231 86.9633C109.845 87.1196 109.152 87.1889 107.75 87.3276Z" fill="#04D361"/>
<path d="M112.253 86.8596C112.391 86.9984 112.461 87.0676 112.599 87.1892C112.928 87.1544 113.102 87.1371 113.448 87.1024C113.309 86.9636 113.24 86.9116 113.102 86.7728C112.755 86.8076 112.582 86.8248 112.253 86.8596Z" fill="#04D361"/>
<path d="M98.0676 88.2821C98.1542 88.4381 98.2061 88.5077 98.2927 88.6637C98.6912 88.6292 98.8817 88.6117 99.2801 88.5597C99.1935 88.4036 99.1416 88.3341 99.0549 88.1781C98.6565 88.2301 98.466 88.2473 98.0676 88.2821Z" fill="#AD92FF"/>
<path d="M81.7515 92.3416C81.7687 92.5152 81.7859 92.5844 81.8034 92.7579C83.4835 92.5672 84.3495 92.4632 86.1163 92.2721C86.0988 92.1161 86.0988 92.0293 86.0641 91.8733C84.3148 92.0641 83.4316 92.1508 81.7515 92.3416Z" fill="#04D361"/>
<path d="M87.017 91.769C87.0342 91.925 87.0515 92.0118 87.069 92.1678C89.3205 91.925 91.5548 91.6647 93.8066 91.4219C93.7894 91.2659 93.7719 91.1964 93.7372 91.0403C91.4857 91.2831 89.2514 91.5259 87.017 91.769Z" fill="#6F33EA"/>
<path d="M96.041 90.7976C96.0754 90.9536 96.0929 91.0231 96.1273 91.1791C98.5696 90.9016 101.029 90.6415 103.471 90.3637C103.419 90.2249 103.385 90.1557 103.333 90.0169C100.908 90.2597 98.483 90.52 96.041 90.7976Z" fill="#6F33EA"/>
<path d="M104.372 89.8781C104.441 90.0169 104.458 90.0862 104.51 90.2249C109.811 89.6178 115.111 88.9932 120.394 88.3166C120.289 88.1953 120.255 88.1258 120.151 88.0045C114.903 88.6636 109.637 89.2883 104.372 89.8781Z" fill="#6F33EA"/>
<path d="M94.3955 90.9711C94.4302 91.1271 94.4474 91.1966 94.4646 91.3526C94.8631 91.3006 95.071 91.2834 95.4692 91.2486C95.4348 91.0923 95.4173 91.0231 95.3826 90.8671C94.9844 90.9016 94.7765 90.9363 94.3955 90.9711Z" fill="#AD92FF"/>
<path d="M81.9939 96.0366C81.9592 96.1753 81.9245 96.2621 81.8901 96.4009C83.5008 96.1753 84.3668 96.0541 86.1507 95.811C86.2027 95.6723 86.2202 95.603 86.2721 95.4642C84.4709 95.707 83.6046 95.811 81.9939 96.0366Z" fill="#04D361"/>
<path d="M87.2075 95.3427C87.1556 95.4814 87.1383 95.551 87.0864 95.6898C89.4074 95.3774 91.7455 95.0999 94.0837 94.8048C94.1359 94.666 94.1531 94.5968 94.1878 94.458C91.8494 94.7528 89.5284 95.0479 87.2075 95.3427Z" fill="#6F33EA"/>
<path d="M96.6298 94.1629C96.5951 94.302 96.5779 94.3712 96.5432 94.51C99.1588 94.1977 101.774 93.8681 104.39 93.5558C104.407 93.417 104.424 93.365 104.424 93.2263C101.826 93.5386 99.2279 93.8509 96.6298 94.1629Z" fill="#6F33EA"/>
<path d="M105.532 93.0878C105.515 93.2266 105.515 93.2786 105.498 93.4174C111.092 92.7235 116.67 92.0121 122.264 91.2314C122.247 91.1099 122.229 91.0407 122.212 90.9191C116.67 91.6825 111.109 92.3936 105.532 93.0878Z" fill="#6F33EA"/>
<path d="M94.8803 94.389C94.8456 94.5278 94.8284 94.597 94.7765 94.7358C95.1921 94.6838 95.4173 94.6666 95.833 94.597C95.8677 94.4583 95.8849 94.389 95.9196 94.2502C95.504 94.3022 95.296 94.3367 94.8803 94.389Z" fill="#04D361"/>
<path d="M85.6484 88.0218C85.7351 88.1951 85.7695 88.2994 85.8561 88.4726C88.0732 88.2994 90.2903 88.1083 92.5074 87.935C92.4208 87.7615 92.3689 87.692 92.2648 87.5184C90.0652 87.692 87.8655 87.8655 85.6484 88.0218Z" fill="#6F33EA"/>
<path d="M94.4647 87.3279C94.5685 87.4839 94.6204 87.5707 94.7246 87.7443C97.0108 87.5535 99.297 87.3452 101.583 87.1371C101.462 86.9809 101.393 86.9116 101.272 86.7553C99.0027 86.9636 96.7337 87.1544 94.4647 87.3279Z" fill="#6F33EA"/>
<path d="M102.069 86.686C102.207 86.842 102.259 86.9116 102.398 87.0676C106.814 86.6513 111.248 86.2174 115.665 85.7663C115.492 85.6451 115.405 85.5755 115.232 85.4368C110.833 85.8879 106.451 86.2869 102.069 86.686Z" fill="#6F33EA"/>
<path d="M93.062 87.4492C93.1658 87.6227 93.2177 87.6919 93.3043 87.8655C93.6162 87.8307 93.7722 87.8307 94.0837 87.7962C93.9799 87.6399 93.9452 87.5532 93.8413 87.3796C93.5295 87.4144 93.3738 87.4144 93.062 87.4492Z" fill="#AD92FF"/>
<path d="M76.7975 102.161C76.6418 102.282 76.5724 102.334 76.3991 102.438C77.8368 102.178 78.6681 102.039 80.5215 101.779C80.6948 101.658 80.7814 101.606 80.9372 101.484C79.1013 101.762 78.2525 101.9 76.7975 102.161Z" fill="#04D361"/>
<path d="M77.5422 102.664C77.369 102.768 77.2826 102.837 77.0919 102.941C77.5597 102.872 77.8021 102.82 78.3216 102.751C78.5124 102.647 78.599 102.577 78.772 102.473C78.2697 102.56 78.0273 102.595 77.5422 102.664Z" fill="#04D361"/>
<path d="M79.4997 102.369C79.3264 102.49 79.2226 102.542 79.0493 102.647C80.7469 102.403 81.6821 102.282 83.674 102.022C83.8645 101.9 83.9511 101.848 84.1416 101.744C82.1324 102.005 81.1973 102.126 79.4997 102.369Z" fill="#6F33EA"/>
<path d="M85.1634 101.606C84.9729 101.727 84.8863 101.779 84.6958 101.883C87.3286 101.554 89.9785 101.241 92.6113 100.947C92.7846 100.825 92.8884 100.773 93.0617 100.651C90.4289 100.964 87.7961 101.293 85.1634 101.606Z" fill="#6F33EA"/>
<path d="M74.3555 103.809C74.1647 103.913 74.0784 103.965 73.8876 104.069C74.2861 104 74.494 103.965 74.9269 103.896C75.1174 103.792 75.2215 103.74 75.412 103.618C74.9616 103.688 74.7537 103.74 74.3555 103.809Z" fill="#04D361"/>
<path d="M76.0356 103.514C75.8451 103.618 75.7413 103.67 75.5508 103.792C77.0229 103.549 77.8717 103.427 79.7076 103.184C79.9156 103.08 80.0194 103.011 80.2099 102.907C78.374 103.167 77.5252 103.288 76.0356 103.514Z" fill="#6F33EA"/>
<path d="M90.2904 101.692C90.0999 101.814 89.9961 101.866 89.7881 101.97C91.7453 101.744 93.7197 101.536 95.6772 101.328C95.8677 101.207 95.9716 101.155 96.162 101.033C94.2048 101.259 92.2476 101.467 90.2904 101.692Z" fill="#04D361"/>
<path d="M81.1798 102.786C80.9718 102.89 80.8852 102.959 80.6775 103.063C83.1889 102.734 85.7175 102.439 88.2465 102.161C88.4541 102.039 88.5583 101.987 88.7487 101.883C86.2026 102.161 83.6912 102.456 81.1798 102.786Z" fill="#6F33EA"/>
<path d="M72.8831 105.11C72.6579 105.214 72.5368 105.266 72.3116 105.37C72.6579 105.318 72.8311 105.284 73.1949 105.232C73.4373 105.128 73.5414 105.076 73.7666 104.971C73.4028 105.023 73.2296 105.058 72.8831 105.11Z" fill="#04D361"/>
<path d="M74.4421 104.867C74.2169 104.971 74.0959 105.023 73.8532 105.127C75.4467 104.902 76.3474 104.78 78.3047 104.555C78.5473 104.451 78.6684 104.399 78.8936 104.295C76.9363 104.537 76.0356 104.641 74.4421 104.867Z" fill="#6F33EA"/>
<path d="M88.9048 103.185C88.6796 103.289 88.5586 103.358 88.3159 103.462C88.801 103.41 89.0609 103.393 89.5457 103.341C89.7883 103.237 89.8922 103.167 90.1346 103.063C89.6323 103.115 89.3899 103.15 88.9048 103.185Z" fill="#04D361"/>
<path d="M79.9325 104.173C79.6899 104.277 79.5688 104.329 79.3436 104.433C81.9936 104.138 84.6436 103.844 87.311 103.566C87.5534 103.462 87.6748 103.392 87.9 103.288C85.2325 103.583 82.5825 103.861 79.9325 104.173Z" fill="#6F33EA"/>
<path d="M91.1736 102.959C90.9484 103.08 90.8274 103.132 90.6022 103.236C93.5812 102.941 96.5605 102.629 99.5395 102.334C99.7646 102.213 99.8685 102.161 100.094 102.039C97.1147 102.351 94.1354 102.647 91.1736 102.959Z" fill="#6F33EA"/>
<path d="M65.1411 108.216C64.8468 108.32 64.7082 108.354 64.3964 108.458C64.7082 108.424 64.8815 108.389 65.2277 108.354C65.5223 108.25 65.6781 108.216 65.9724 108.111C65.6434 108.146 65.4701 108.163 65.1411 108.216Z" fill="#04D361"/>
<path d="M66.6477 108.025C66.3534 108.129 66.1973 108.181 65.903 108.268C67.4443 108.094 68.345 107.99 70.3197 107.799C70.6315 107.695 70.7873 107.643 71.0816 107.539C69.09 107.73 68.1893 107.834 66.6477 108.025Z" fill="#6F33EA"/>
<path d="M81.3358 106.637C81.024 106.741 80.8683 106.81 80.5737 106.914C81.0762 106.88 81.3358 106.845 81.8556 106.81C82.1674 106.706 82.3232 106.637 82.6175 106.533C82.098 106.585 81.8556 106.602 81.3358 106.637Z" fill="#04D361"/>
<path d="M72.1212 107.452C71.8093 107.556 71.6533 107.608 71.3415 107.712C74.0609 107.469 76.7978 107.226 79.5169 107.018C79.8287 106.914 79.9847 106.862 80.2963 106.741C77.5597 106.949 74.8403 107.192 72.1212 107.452Z" fill="#6F33EA"/>
<path d="M83.6915 106.446C83.3797 106.55 83.2411 106.62 82.9293 106.724C85.995 106.481 89.0781 106.238 92.1437 105.995C92.4555 105.873 92.5941 105.821 92.8887 105.7C89.8228 105.96 86.7571 106.203 83.6915 106.446Z" fill="#6F33EA"/>
<path d="M60.5339 109.655C60.2049 109.759 60.0489 109.794 59.7198 109.898C60.0144 109.863 60.1702 109.846 60.5165 109.811C60.8458 109.707 61.0015 109.673 61.3305 109.569C60.9843 109.586 60.8283 109.603 60.5339 109.655Z" fill="#04D361"/>
<path d="M61.9366 109.482C61.6073 109.586 61.4516 109.621 61.105 109.725C62.5775 109.569 63.4607 109.482 65.4007 109.326C65.7469 109.222 65.903 109.17 66.2492 109.066C64.3095 109.239 63.426 109.326 61.9366 109.482Z" fill="#6F33EA"/>
<path d="M76.5032 108.302C76.1569 108.406 76.0009 108.476 75.6547 108.58C76.1569 108.545 76.4166 108.528 76.9363 108.493C77.2826 108.389 77.4558 108.32 77.7851 108.215C77.2829 108.233 77.023 108.25 76.5032 108.302Z" fill="#04D361"/>
<path d="M67.2885 108.996C66.9595 109.1 66.7862 109.152 66.4397 109.256C69.1591 109.031 71.8785 108.84 74.5976 108.649C74.9441 108.545 75.1174 108.493 75.4464 108.371C72.727 108.562 70.0079 108.77 67.2885 108.996Z" fill="#6F33EA"/>
<path d="M78.8761 108.129C78.5298 108.233 78.3738 108.302 78.0275 108.406C81.1279 108.198 84.211 107.99 87.3113 107.782C87.6576 107.66 87.8136 107.608 88.1598 107.487C85.0595 107.695 81.9592 107.903 78.8761 108.129Z" fill="#6F33EA"/>
<path d="M56.4287 110.592C56.0997 110.679 55.9437 110.731 55.6146 110.818C55.8051 110.783 55.8917 110.765 56.1169 110.731C56.4459 110.644 56.6192 110.592 56.9482 110.505C56.723 110.54 56.6192 110.557 56.4287 110.592Z" fill="#04D361"/>
<path d="M57.3811 110.453C57.0521 110.54 56.8788 110.592 56.5498 110.696C57.5891 110.557 58.2818 110.488 59.8928 110.349C60.2391 110.245 60.4123 110.193 60.7588 110.106C59.1306 110.245 58.4379 110.315 57.3811 110.453Z" fill="#6F33EA"/>
<path d="M69.9732 109.378C69.627 109.482 69.4365 109.534 69.0728 109.638C69.5575 109.603 69.8002 109.586 70.285 109.551C70.6487 109.447 70.822 109.395 71.1857 109.274C70.7007 109.343 70.4583 109.36 69.9732 109.378Z" fill="#04D361"/>
<path d="M61.6249 110.02C61.2786 110.124 61.1054 110.176 60.7589 110.262C63.2011 110.054 65.6434 109.881 68.0854 109.725C68.4492 109.621 68.6224 109.569 68.9862 109.465C66.5267 109.621 64.0844 109.794 61.6249 110.02Z" fill="#6F33EA"/>
<path d="M66.3189 107.591C66.0418 107.695 65.9033 107.73 65.6262 107.834C66.8037 107.643 67.5487 107.556 69.2288 107.348C69.5231 107.244 69.6617 107.192 69.9388 107.105C68.2589 107.313 67.514 107.4 66.3189 107.591Z" fill="#04D361"/>
<path d="M79.2051 106.168C78.9105 106.272 78.7719 106.325 78.4776 106.429C78.9452 106.394 79.1876 106.359 79.6726 106.325C79.967 106.22 80.1055 106.168 80.4001 106.047C79.915 106.099 79.6727 106.116 79.2051 106.168Z" fill="#04D361"/>
<path d="M70.8567 107.001C70.5624 107.105 70.4239 107.157 70.1293 107.261C72.5888 106.984 75.0311 106.758 77.4906 106.533C77.7852 106.429 77.9237 106.377 78.218 106.273C75.7585 106.498 73.299 106.724 70.8567 107.001Z" fill="#6F33EA"/>
<path d="M81.4222 105.96C81.1279 106.064 80.9893 106.116 80.6947 106.238C83.6912 105.977 86.6877 105.717 89.6842 105.474C89.9785 105.353 90.117 105.301 90.3942 105.179C87.3977 105.44 84.4187 105.7 81.4222 105.96Z" fill="#6F33EA"/>
<path d="M91.4851 105.093C91.208 105.214 91.0695 105.266 90.7751 105.388C97.0972 104.85 103.419 104.347 109.706 103.653C109.984 103.531 110.122 103.462 110.399 103.323C104.112 104.017 97.7899 104.537 91.4851 105.093Z" fill="#6F33EA"/>
<path d="M74.5113 105.405C74.2689 105.509 74.1303 105.561 73.8876 105.665C75.6372 105.44 76.607 105.336 78.7028 105.11C78.9627 105.006 79.084 104.954 79.3436 104.85C77.2479 105.075 76.2605 105.179 74.5113 105.405Z" fill="#04D361"/>
<path d="M89.8053 103.757C89.5629 103.861 89.4415 103.93 89.1816 104.034C89.6839 103.982 89.9438 103.965 90.4461 103.913C90.706 103.792 90.8273 103.74 91.0697 103.635C90.5674 103.688 90.3075 103.722 89.8053 103.757Z" fill="#04D361"/>
<path d="M80.4176 104.711C80.158 104.815 80.0367 104.867 79.7768 104.971C82.5656 104.676 85.3369 104.399 88.1254 104.138C88.3853 104.034 88.5064 103.965 88.7491 103.861C85.9777 104.138 83.2064 104.416 80.4176 104.711Z" fill="#6F33EA"/>
<path d="M92.1437 103.531C91.9013 103.653 91.78 103.705 91.5201 103.809C94.5341 103.514 97.5478 103.236 100.561 102.941C100.804 102.82 100.925 102.768 101.15 102.647C98.1539 102.959 95.1402 103.236 92.1437 103.531Z" fill="#6F33EA"/>
<path d="M61.2439 109.17C60.9496 109.257 60.7935 109.309 60.4992 109.395C61.4344 109.239 62.058 109.153 63.5648 108.979C63.8766 108.875 64.0324 108.84 64.3617 108.736C62.8374 108.927 62.1793 109.014 61.2439 109.17Z" fill="#6F33EA"/>
<path d="M73.0913 107.938C72.762 108.042 72.6062 108.094 72.2772 108.198C72.7448 108.163 72.97 108.146 73.455 108.111C73.7841 108.007 73.9398 107.955 74.2689 107.851C73.7841 107.886 73.5414 107.903 73.0913 107.938Z" fill="#04D361"/>
<path d="M85.2847 106.984C84.9729 107.105 84.7997 107.157 84.4879 107.279C85.0248 107.244 85.2847 107.227 85.8214 107.175C86.1507 107.053 86.3065 107.001 86.6183 106.88C86.0813 106.932 85.8214 106.949 85.2847 106.984Z" fill="#04D361"/>
<path d="M65.1581 108.666C64.8462 108.77 64.6905 108.822 64.3615 108.909C66.6824 108.666 69.0034 108.476 71.3068 108.285C71.6361 108.181 71.7919 108.129 72.1209 108.025C69.8 108.215 67.479 108.424 65.1581 108.666Z" fill="#6F33EA"/>
<path d="M75.2562 107.764C74.9272 107.868 74.7714 107.92 74.4421 108.024C77.4214 107.799 80.4004 107.573 83.3797 107.348C83.7087 107.226 83.8648 107.174 84.1938 107.07C81.2145 107.296 78.2355 107.521 75.2562 107.764Z" fill="#6F33EA"/>
<path d="M87.727 106.81C87.4152 106.931 87.2419 106.984 86.9301 107.105C89.9613 106.879 93.0097 106.654 96.0407 106.428C96.37 106.307 96.5257 106.237 96.8376 106.116C93.7891 106.342 90.7579 106.585 87.727 106.81Z" fill="#6F33EA"/>
<path d="M95.8846 100.339C95.7113 100.461 95.6247 100.513 95.4517 100.634C98.4135 100.305 101.375 99.9751 104.337 99.628C104.493 99.5067 104.579 99.4547 104.736 99.3332C101.791 99.6627 98.8292 100.01 95.8846 100.339Z" fill="#6F33EA"/>
<path d="M105.983 99.1941C105.827 99.3157 105.74 99.3677 105.585 99.4892C107.317 99.2984 108.183 99.1941 109.897 98.9861C110.053 98.8646 110.122 98.8126 110.278 98.691C108.581 98.8821 107.715 98.9861 105.983 99.1941Z" fill="#04D361"/>
<path d="M111.473 98.535C111.318 98.6566 111.248 98.7258 111.093 98.8474C111.491 98.7954 111.699 98.7778 112.097 98.7258C112.253 98.6043 112.322 98.535 112.478 98.4135C112.08 98.4655 111.889 98.483 111.473 98.535Z" fill="#04D361"/>
<path d="M93.8585 100.565C93.6852 100.686 93.5986 100.738 93.4081 100.859C93.8932 100.807 94.1356 100.773 94.6207 100.721C94.7939 100.599 94.8803 100.547 95.0536 100.426C94.586 100.495 94.3436 100.513 93.8585 100.565Z" fill="#04D361"/>
<path d="M73.0913 104.538C72.8833 104.642 72.7795 104.694 72.5715 104.798C73.8188 104.572 74.5635 104.451 76.2264 104.225C76.4516 104.121 76.5554 104.069 76.7631 103.965C75.1177 104.191 74.3555 104.295 73.0913 104.538Z" fill="#04D361"/>
<path d="M77.6638 103.826C77.4561 103.93 77.3348 103.982 77.1268 104.087C79.5 103.774 81.8729 103.479 84.2629 103.219C84.4881 103.115 84.5922 103.046 84.8171 102.942C82.4271 103.219 80.0542 103.497 77.6638 103.826Z" fill="#6F33EA"/>
<path d="M87.4843 102.646C87.2766 102.751 87.1553 102.82 86.9476 102.924C89.8747 102.594 92.8192 102.3 95.7463 101.987C95.9543 101.866 96.0581 101.814 96.2658 101.692C93.3387 102.004 90.4116 102.317 87.4843 102.646Z" fill="#6F33EA"/>
<path d="M97.5131 101.554C97.3051 101.675 97.2013 101.727 96.9933 101.848C103.177 101.189 109.378 100.547 115.544 99.7841C115.734 99.6625 115.838 99.5933 116.011 99.4717C109.862 100.235 103.697 100.894 97.5131 101.554Z" fill="#6F33EA"/>
<path d="M85.5618 102.855C85.3541 102.959 85.2328 103.028 85.0076 103.132C85.458 103.08 85.7004 103.063 86.1507 103.011C86.3759 102.907 86.48 102.838 86.6877 102.733C86.2374 102.786 86.0122 102.803 85.5618 102.855Z" fill="#04D361"/>
<path d="M67.9124 106.897C67.6525 107.001 67.5312 107.036 67.2713 107.14C68.4144 106.949 69.1247 106.845 70.7701 106.637C71.0472 106.533 71.1685 106.481 71.4456 106.377C69.8002 106.602 69.0727 106.706 67.9124 106.897Z" fill="#04D361"/>
<path d="M72.3117 106.272C72.0518 106.376 71.9132 106.428 71.6361 106.532C74.0265 106.237 76.4341 105.995 78.8241 105.769C79.1012 105.665 79.2398 105.613 79.5169 105.509C77.1093 105.734 74.7017 105.995 72.3117 106.272Z" fill="#6F33EA"/>
<path d="M82.2363 105.232C81.9592 105.336 81.8207 105.388 81.5436 105.509C84.5573 105.232 87.571 104.954 90.5847 104.676C90.8621 104.555 90.9831 104.503 91.2602 104.399C88.2637 104.659 85.25 104.937 82.2363 105.232Z" fill="#6F33EA"/>
<path d="M92.5769 104.26C92.3173 104.382 92.1787 104.434 91.9188 104.555C98.1714 104 104.424 103.445 110.677 102.751C110.937 102.629 111.058 102.56 111.318 102.439C105.065 103.132 98.8123 103.688 92.5769 104.26Z" fill="#6F33EA"/>
<path d="M80.175 105.422C79.8804 105.544 79.7246 105.596 79.43 105.717C79.9323 105.665 80.1922 105.648 80.6945 105.596C80.989 105.474 81.1448 105.422 81.4391 105.301C80.9368 105.353 80.6772 105.37 80.175 105.422Z" fill="#04D361"/>
<path d="M81.6993 101.38C81.5435 101.501 81.4569 101.553 81.2836 101.675C83.7084 101.328 86.1335 101.016 88.5755 100.721C88.7488 100.599 88.8182 100.547 88.9915 100.426C86.5492 100.738 84.1244 101.033 81.6993 101.38Z" fill="#6F33EA"/>
<path d="M91.6067 100.114C91.4506 100.235 91.3643 100.287 91.2083 100.409C94.0662 100.062 96.9069 99.732 99.7646 99.4025C99.9206 99.281 99.9897 99.229 100.146 99.1074C97.2704 99.4373 94.4299 99.7668 91.6067 100.114Z" fill="#6F33EA"/>
<path d="M101.133 98.9859C100.995 99.1074 100.908 99.1594 100.769 99.2806C106.208 98.6563 111.63 98.0144 117.051 97.3203C117.172 97.199 117.241 97.1295 117.363 97.0082C111.959 97.7021 106.554 98.344 101.133 98.9859Z" fill="#6F33EA"/>
<path d="M89.9094 100.304C89.7534 100.426 89.6667 100.478 89.4935 100.599C89.8747 100.547 90.048 100.53 90.4289 100.478C90.6022 100.356 90.6713 100.304 90.8446 100.183C90.4636 100.252 90.2731 100.27 89.9094 100.304Z" fill="#04D361"/>
<path d="M54.0037 111.269C53.6746 111.356 53.5014 111.408 53.1548 111.494C53.8651 111.373 54.4368 111.303 55.9089 111.165C56.2727 111.061 56.4459 111.026 56.7922 110.922C55.32 111.078 54.7311 111.147 54.0037 111.269Z" fill="#04D361"/>
<path d="M52.5835 111.807C52.2197 111.911 52.0465 111.945 51.6827 112.049C51.9946 112.015 52.1678 111.997 52.5315 111.963C52.8953 111.859 53.0858 111.824 53.4495 111.72C53.0683 111.755 52.8953 111.772 52.5835 111.807Z" fill="#04D361"/>
<path d="M53.9865 111.668C53.6227 111.772 53.4323 111.807 53.0685 111.911C54.3849 111.807 55.199 111.737 57.0524 111.616C57.4333 111.512 57.6238 111.46 58.005 111.355C56.1342 111.494 55.3204 111.564 53.9865 111.668Z" fill="#6F33EA"/>
<path d="M58.9746 111.303C58.5933 111.407 58.4029 111.459 58.0219 111.563C60.6891 111.407 63.3566 111.251 66.0065 111.112C66.405 111.008 66.5955 110.939 66.9767 110.835C64.3264 110.991 61.6417 111.147 58.9746 111.303Z" fill="#6F33EA"/>
<path d="M48.8596 112.657C48.4959 112.744 48.3227 112.796 47.9589 112.9C48.1321 112.865 48.2361 112.865 48.4785 112.83C48.8423 112.726 49.0328 112.691 49.3966 112.587C49.1368 112.604 49.0329 112.622 48.8596 112.657Z" fill="#04D361"/>
<path d="M49.7603 112.535C49.3966 112.639 49.206 112.674 48.825 112.778C49.743 112.691 50.3839 112.639 51.9254 112.535C52.3238 112.431 52.5143 112.379 52.8953 112.275C51.3537 112.396 50.6957 112.448 49.7603 112.535Z" fill="#6F33EA"/>
<path d="M62.6122 111.737C62.2137 111.841 62.006 111.911 61.6076 112.015C63.6515 111.911 65.7125 111.824 67.7564 111.737C68.1548 111.616 68.3625 111.564 68.7609 111.442C66.7171 111.546 64.656 111.633 62.6122 111.737Z" fill="#04D361"/>
<path d="M53.7612 112.223C53.3803 112.327 53.1723 112.379 52.7914 112.483C55.199 112.327 57.6065 112.205 60.0141 112.101C60.4123 111.997 60.6203 111.945 61.0187 111.824C58.5936 111.945 56.1688 112.067 53.7612 112.223Z" fill="#6F33EA"/>
<path d="M44.0443 114.01C43.6459 114.114 43.4554 114.166 43.057 114.253C43.2475 114.235 43.3515 114.235 43.5766 114.218C43.975 114.114 44.1828 114.062 44.5812 113.975C44.356 113.975 44.2348 113.992 44.0443 114.01Z" fill="#04D361"/>
<path d="M45.0319 113.923C44.6335 114.027 44.4256 114.079 44.0273 114.183C45.1185 114.114 45.846 114.079 47.5607 114.01C47.9764 113.906 48.1843 113.854 48.5999 113.75C46.8852 113.819 46.1404 113.854 45.0319 113.923Z" fill="#6F33EA"/>
<path d="M58.2474 113.351C57.8142 113.472 57.6065 113.524 57.1734 113.645C57.6757 113.628 57.9181 113.611 58.4379 113.593C58.8707 113.472 59.0959 113.42 59.5118 113.299C58.9921 113.316 58.7497 113.333 58.2474 113.351Z" fill="#04D361"/>
<path d="M49.5179 113.697C49.1022 113.801 48.8944 113.854 48.4614 113.958C51.0249 113.854 53.5711 113.749 56.1344 113.663C56.5673 113.541 56.7753 113.489 57.2084 113.385C54.6448 113.489 52.0814 113.576 49.5179 113.697Z" fill="#6F33EA"/>
<path d="M60.568 113.264C60.1352 113.385 59.9272 113.437 59.4943 113.559C62.5772 113.455 65.6603 113.35 68.7434 113.246C69.1763 113.125 69.4015 113.056 69.8346 112.934C66.7343 113.038 63.6512 113.16 60.568 113.264Z" fill="#6F33EA"/>
<path d="M30.9846 117.306C30.5516 117.41 30.3264 117.48 29.8761 117.584C30.032 117.584 30.1186 117.584 30.3091 117.584C30.7595 117.48 30.9846 117.41 31.435 117.306C31.2444 117.306 31.1405 117.306 30.9846 117.306Z" fill="#AD92FF"/>
<path d="M31.8336 117.289C31.3833 117.393 31.1581 117.462 30.7078 117.566C31.6777 117.549 32.3532 117.549 33.9987 117.532C34.4663 117.41 34.7088 117.358 35.1765 117.237C33.5137 117.272 32.8209 117.272 31.8336 117.289Z" fill="#6F33EA"/>
<path d="M44.616 117.115C44.131 117.237 43.8885 117.306 43.3862 117.427C43.8712 117.427 44.131 117.427 44.6333 117.41C45.1183 117.289 45.3781 117.219 45.8631 117.098C45.3608 117.115 45.1183 117.115 44.616 117.115Z" fill="#04D361"/>
<path d="M36.0597 117.237C35.592 117.358 35.3496 117.41 34.8819 117.532C37.3934 117.497 39.8876 117.479 42.399 117.445C42.884 117.323 43.1265 117.254 43.6115 117.133C41.0827 117.167 38.5712 117.202 36.0597 117.237Z" fill="#6F33EA"/>
<path d="M46.9197 117.098C46.4347 117.219 46.1922 117.289 45.6899 117.41C48.7037 117.375 51.7349 117.358 54.7486 117.323C55.2509 117.185 55.4933 117.133 55.9956 116.994C52.9819 117.029 49.9508 117.063 46.9197 117.098Z" fill="#6F33EA"/>
<path d="M33.9812 116.456C33.5655 116.56 33.3404 116.612 32.9247 116.716C33.3404 116.699 33.7734 116.681 34.9858 116.664C35.4362 116.56 35.6613 116.491 36.0943 116.386C34.8646 116.421 34.4142 116.438 33.9812 116.456Z" fill="#04D361"/>
<path d="M44.0963 116.23C43.6287 116.352 43.3862 116.404 42.9185 116.525C43.3689 116.525 43.594 116.508 44.0616 116.508C44.5293 116.386 44.7718 116.334 45.2395 116.213C44.7718 116.213 44.5467 116.213 44.0963 116.23Z" fill="#04D361"/>
<path d="M36.7525 116.369C36.3022 116.473 36.077 116.543 35.6267 116.647C37.7398 116.595 39.8703 116.56 41.9833 116.525C42.451 116.404 42.6935 116.352 43.1611 116.23C41.0307 116.282 38.883 116.317 36.7525 116.369Z" fill="#6F33EA"/>
<path d="M46.2267 116.178C45.759 116.3 45.5166 116.352 45.049 116.473C48.0108 116.421 50.9725 116.387 53.917 116.335C54.4021 116.213 54.6445 116.144 55.1121 116.022C52.1503 116.074 49.1885 116.126 46.2267 116.178Z" fill="#6F33EA"/>
<path d="M56.2208 116.005C55.7357 116.126 55.4933 116.196 55.0082 116.317C60.9493 116.23 66.9076 116.144 72.8487 116.074C73.3682 115.936 73.6105 115.866 74.1303 115.71C68.1546 115.814 62.1791 115.901 56.2208 116.005Z" fill="#6F33EA"/>
<path d="M43.334 114.617C42.9183 114.721 42.7105 114.773 42.2775 114.877C43.6111 114.825 44.4598 114.791 46.3651 114.721C46.7981 114.617 47.0233 114.548 47.4563 114.444C45.5337 114.53 44.685 114.565 43.334 114.617Z" fill="#04D361"/>
<path d="M57.7279 114.132C57.2775 114.253 57.0523 114.305 56.6192 114.426C57.1387 114.409 57.3986 114.409 57.9184 114.392C58.3687 114.27 58.5936 114.218 59.044 114.097C58.4898 114.097 58.2302 114.114 57.7279 114.132Z" fill="#04D361"/>
<path d="M48.4609 114.426C48.0279 114.53 47.8027 114.6 47.3697 114.704C50.089 114.617 52.8083 114.53 55.5449 114.461C55.9953 114.34 56.2205 114.288 56.6536 114.166C53.917 114.235 51.1976 114.322 48.4609 114.426Z" fill="#6F33EA"/>
<path d="M60.1177 114.062C59.6674 114.184 59.4422 114.236 58.9918 114.357C62.0749 114.27 65.1578 114.184 68.2237 114.114C68.6741 113.992 68.8992 113.923 69.3496 113.802C66.2837 113.871 63.2009 113.958 60.1177 114.062Z" fill="#6F33EA"/>
<path d="M69.9732 110.679C69.5923 110.8 69.4015 110.852 69.0034 110.956C72.1728 110.8 75.3426 110.627 78.5296 110.471C78.928 110.349 79.1185 110.297 79.4994 110.176C76.3124 110.349 73.143 110.505 69.9732 110.679Z" fill="#6F33EA"/>
<path d="M80.816 110.107C80.4348 110.228 80.2443 110.297 79.8459 110.419C81.6993 110.332 82.6172 110.28 84.3839 110.193C84.7824 110.072 84.9729 110.002 85.3541 109.881C83.5873 109.968 82.6694 110.002 80.816 110.107Z" fill="#04D361"/>
<path d="M86.6011 109.794C86.2198 109.915 86.0121 109.985 85.6309 110.107C86.0466 110.089 86.2545 110.072 86.653 110.054C87.0514 109.933 87.2419 109.863 87.6228 109.742C87.2244 109.759 87.0167 109.777 86.6011 109.794Z" fill="#04D361"/>
<path d="M67.8255 110.783C67.4443 110.887 67.2538 110.956 66.8553 111.06C67.3576 111.026 67.6175 111.026 68.137 110.991C68.5355 110.887 68.7259 110.818 69.1072 110.714C68.5874 110.748 68.3278 110.766 67.8255 110.783Z" fill="#04D361"/>
<path d="M46.3482 113.316C45.9845 113.403 45.7939 113.455 45.4128 113.559C45.9151 113.489 46.3828 113.437 47.6299 113.351C48.0282 113.246 48.2188 113.194 48.6172 113.108C47.3528 113.194 46.8851 113.229 46.3482 113.316Z" fill="#04D361"/>
<path d="M49.2925 113.056C48.8941 113.16 48.7036 113.212 48.3052 113.316C50.4356 113.177 52.5659 113.09 54.6964 112.986C55.1121 112.882 55.32 112.83 55.7185 112.709C53.5705 112.813 51.4403 112.917 49.2925 113.056Z" fill="#6F33EA"/>
<path d="M58.3684 112.587C57.9525 112.692 57.7448 112.761 57.3292 112.865C60.3601 112.744 63.3741 112.622 66.405 112.501C66.8207 112.379 67.0286 112.327 67.4443 112.206C64.4131 112.31 61.3994 112.448 58.3684 112.587Z" fill="#6F33EA"/>
<path d="M68.7782 112.136C68.3625 112.258 68.1545 112.31 67.7389 112.431C73.9915 112.188 80.2269 111.963 86.4798 111.668C86.9126 111.529 87.1378 111.46 87.5537 111.321C81.3009 111.633 75.0308 111.876 68.7782 112.136Z" fill="#6F33EA"/>
<path d="M56.446 112.674C56.0303 112.778 55.8223 112.83 55.4239 112.951C55.8743 112.934 56.0994 112.917 56.5498 112.899C56.9655 112.795 57.1734 112.726 57.5891 112.622C57.1215 112.639 56.8963 112.639 56.446 112.674Z" fill="#04D361"/>
<path d="M37.1163 115.641C36.7007 115.745 36.5101 115.797 36.0944 115.901C36.4408 115.866 36.8392 115.849 37.9824 115.814C38.4154 115.71 38.6232 115.658 39.0562 115.554C37.9131 115.589 37.4974 115.606 37.1163 115.641Z" fill="#04D361"/>
<path d="M39.7144 115.52C39.2814 115.624 39.0562 115.676 38.6232 115.78C40.6844 115.71 42.7455 115.658 44.8067 115.606C45.257 115.485 45.4822 115.433 45.9325 115.329C43.854 115.398 41.7756 115.45 39.7144 115.52Z" fill="#6F33EA"/>
<path d="M48.5481 115.276C48.0978 115.398 47.8726 115.45 47.405 115.571C50.4014 115.502 53.3978 115.432 56.4118 115.38C56.8794 115.259 57.1046 115.19 57.5721 115.068C54.5584 115.12 51.5619 115.19 48.5481 115.276Z" fill="#6F33EA"/>
<path d="M58.8882 115.033C58.4204 115.155 58.1955 115.224 57.7276 115.346C63.7725 115.224 69.8174 115.103 75.8448 114.981C76.3299 114.843 76.5723 114.773 77.0574 114.634C71.0125 114.756 64.9503 114.895 58.8882 115.033Z" fill="#6F33EA"/>
<path d="M46.66 115.311C46.2097 115.432 45.9846 115.485 45.5169 115.606C45.9499 115.589 46.1751 115.589 46.6428 115.571C47.0931 115.45 47.3355 115.398 47.7859 115.276C47.3182 115.293 47.0931 115.311 46.66 115.311Z" fill="#04D361"/>
<path d="M57.4333 110.87C57.0696 110.974 56.8966 111.009 56.5328 111.113C58.8016 110.922 61.0706 110.766 63.3396 110.61C63.7209 110.506 63.8938 110.454 64.2576 110.349C61.9888 110.523 59.7023 110.679 57.4333 110.87Z" fill="#6F33EA"/>
<path d="M66.9598 110.193C66.5961 110.297 66.4053 110.349 66.0244 110.471C69.0728 110.28 72.104 110.106 75.1524 109.933C75.5333 109.811 75.7066 109.759 76.0876 109.638C73.0391 109.811 70.0082 110.002 66.9598 110.193Z" fill="#6F33EA"/>
<path d="M77.1959 109.569C76.8322 109.69 76.6417 109.742 76.2605 109.864C81.9936 109.534 87.7267 109.222 93.4426 108.858C93.8235 108.719 94.0143 108.666 94.378 108.528C88.6621 108.91 82.929 109.239 77.1959 109.569Z" fill="#6F33EA"/>
<path d="M65.21 110.297C64.8462 110.401 64.6558 110.453 64.2745 110.557C64.6558 110.54 64.8462 110.523 65.2447 110.505C65.6256 110.401 65.7989 110.349 66.1798 110.245C65.7814 110.263 65.5909 110.28 65.21 110.297Z" fill="#04D361"/>
<path d="M131.912 81.256C131.306 80.9957 130.647 80.8917 129.989 80.9437L76.9364 84.5349C76.1917 84.5869 75.8107 85.4891 76.313 86.0442C76.7112 86.4953 77.1443 87.0676 77.5428 87.7615C77.5947 87.727 77.6291 87.7095 77.6813 87.675C77.9584 87.2064 78.426 86.9116 78.963 86.8596L132.639 81.5856C132.38 81.4641 132.137 81.3601 131.912 81.256Z" fill="#D7D7E1"/>
<path d="M91.1911 28.7419C88.593 27.8745 81.1451 21.282 80.9721 25.2722C80.7989 29.2624 87.2075 35.3343 87.2075 35.3343C81.1451 31.8646 79.4997 26.0182 79.4997 26.0182C78.0795 25.9314 76.9883 26.4172 76.815 28.048C76.2955 33.2525 83.9164 38.804 83.9164 38.804C77.1615 35.6813 75.7758 29.7828 75.7758 29.7828C74.7365 30.1298 73.0044 32.3851 75.7758 36.3752C78.5471 40.3654 84.0897 42.4472 84.0897 42.4472C86.6877 37.4162 91.7109 34.6404 93.7891 36.2018C95.8677 37.7631 94.1357 41.0593 94.1357 41.0593C96.7337 40.8858 97.0802 43.4881 97.0802 43.4881C94.8284 41.5798 91.7109 42.2737 91.7109 42.2737C93.9624 41.0593 94.4822 35.6813 91.1911 36.8957C87.9003 38.1101 82.7042 44.0086 86.1682 46.7843C89.6323 49.5601 99.0719 46.3506 99.0719 46.3506C102.9 46.3506 106.052 46.7496 108.529 47.4262C109.291 42.6727 112.201 37.208 114.591 33.3219C104.909 29.4532 93.0617 29.3664 91.1911 28.7419Z" fill="url(#paint1_linear_4226_34230)"/>
<path d="M86.1682 81.308C86.1682 81.308 87.554 83.5632 92.2306 83.3896C92.2306 83.3896 89.6323 91.717 92.7501 93.105C95.7813 94.458 97.0111 84.7949 97.0802 84.2746C97.0802 84.2571 97.0802 84.2571 97.0802 84.2571V84.2746C97.0283 84.7429 96.1104 92.6019 98.2928 93.105C100.544 93.6254 101.41 84.2571 101.41 84.2571C101.41 84.2571 101.237 93.4518 104.528 91.5435C107.819 89.6351 105.567 79.2261 99.1588 72.6336C94.4475 67.7762 88.0391 64.8096 79.8637 65.7983C77.5775 73.6398 78.7031 79.1741 80.0022 82.3835C82.1672 81.6548 84.2285 81.2212 86.1682 81.308Z" fill="url(#paint2_linear_4226_34230)"/>
<path d="M79.7574 86.0823C79.9437 85.7588 79.7257 85.2827 79.2701 85.0194C78.8144 84.756 78.2938 84.8047 78.1072 85.1281C77.9207 85.4518 78.1389 85.9277 78.5945 86.1913C79.0502 86.4547 79.5708 86.406 79.7574 86.0823Z" fill="#AAAABC"/>
<path d="M82.1821 85.9088C82.3687 85.5853 82.1505 85.1092 81.6949 84.8458C81.2392 84.5822 80.7186 84.6311 80.5323 84.9546C80.3457 85.2783 80.5639 85.7541 81.0193 86.0178C81.4749 86.2811 81.9956 86.2325 82.1821 85.9088Z" fill="#AAAABC"/>
<path d="M84.6069 85.7349C84.7935 85.4115 84.5756 84.9354 84.1199 84.672C83.6643 84.4084 83.1437 84.4573 82.9571 84.7807C82.7705 85.1045 82.9887 85.5803 83.4444 85.8439C83.9 86.1073 84.4206 86.0586 84.6069 85.7349Z" fill="#04D361"/>
<path d="M66.4397 53.1339L68.6396 56.4648C68.9167 56.8811 68.6221 57.4537 68.1026 57.4537C67.7908 57.4537 67.6003 57.8005 67.7733 58.0608L70.3888 62.1204C70.458 62.2419 70.5793 62.2939 70.7179 62.2939H71.2896C71.5495 62.2939 71.7919 62.4499 71.8785 62.693C72.1903 63.4736 72.8656 65.2777 73.3506 66.9085L72.9003 67.0648C72.9003 67.0648 72.1556 64.5318 71.4973 62.9358C71.4281 62.7622 71.2549 62.6755 71.0816 62.693L70.5793 62.7622C70.3369 62.797 70.0942 62.693 69.9557 62.4674L67.098 57.9568C66.8381 57.5578 67.098 57.0371 67.5656 56.9851L67.7042 56.9679C67.9813 56.9331 68.137 56.6556 68.016 56.3953L66.4397 53.1339Z" fill="#D7D7E1"/>
<path d="M68.8304 58.5297L70.5971 61.2359C70.7184 61.4095 70.9089 61.4787 71.0647 61.4095H71.0819C71.3418 61.3052 71.4284 60.9236 71.2551 60.6461L69.4712 57.9398C69.3846 57.8183 69.2632 57.7487 69.1422 57.7315C68.7957 57.7315 68.6052 58.1998 68.8304 58.5297Z" fill="#8157E4"/>
<defs>
<radialGradient id="paint0_radial_4226_34230" cx="0" cy="0" r="1" gradientUnits="userSpaceOnUse" gradientTransform="translate(133.548 72.2209) scale(143.645 143.877)">
<stop offset="0.2882" stop-color="#27272E"/>
<stop offset="1" stop-color="#121214"/>
</radialGradient>
<linearGradient id="paint1_linear_4226_34230" x1="114.133" y1="44.9809" x2="62.3316" y2="26.85" gradientUnits="userSpaceOnUse">
<stop offset="0.3276" stop-color="#8157E4"/>
<stop offset="0.395" stop-color="#7D55DD"/>
<stop offset="0.495" stop-color="#724EC9"/>
<stop offset="0.615" stop-color="#6143A8"/>
<stop offset="0.7508" stop-color="#49347A"/>
<stop offset="0.8976" stop-color="#2A2141"/>
<stop offset="1" stop-color="#121214"/>
</linearGradient>
<linearGradient id="paint2_linear_4226_34230" x1="113.418" y1="69.9855" x2="67.0592" y2="88.9156" gradientUnits="userSpaceOnUse">
<stop offset="0.3276" stop-color="#8157E4"/>
<stop offset="0.395" stop-color="#7D55DD"/>
<stop offset="0.495" stop-color="#724EC9"/>
<stop offset="0.615" stop-color="#6143A8"/>
<stop offset="0.7508" stop-color="#49347A"/>
<stop offset="0.8976" stop-color="#2A2141"/>
<stop offset="1" stop-color="#121214"/>
</linearGradient>
</defs>
</svg>
